HIERARCHY
ROOT Hips
{
  OFFSET -125.086 92.215 135.881
  CHANNELS 6 Xposition Yposition Zposition Zrotation Xrotation Yrotation
  JOINT LeftUpLeg
  {
    OFFSET 8.64259 1.95398 -2.38835
    CHANNELS 3 Zrotation Xrotation Yrotation
    JOINT LeftLeg
    {
      OFFSET 43.7702 0 0
      CHANNELS 3 Zrotation Xrotation Yrotation
      JOINT LeftFoot
      {
        OFFSET 40.6238 0 0
        CHANNELS 3 Zrotation Xrotation Yrotation
        JOINT LeftToeBase
        {
          OFFSET 12.7242 0 0
          CHANNELS 3 Zrotation Xrotation Yrotation
          End Site
          {
            OFFSET 0 0 0
          }
        }
      }
    }
  }
  JOINT RightUpLeg
  {
    OFFSET -8.2249 1.95398 -2.59336
    CHANNELS 3 Zrotation Xrotation Yrotation
    JOINT RightLeg
    {
      OFFSET 43.5653 0 0
      CHANNELS 3 Zrotation Xrotation Yrotation
      JOINT RightFoot
      {
        OFFSET 40.6238 0 0
        CHANNELS 3 Zrotation Xrotation Yrotation
        JOINT RightToeBase
        {
          OFFSET 12.7242 0 0
          CHANNELS 3 Zrotation Xrotation Yrotation
          End Site
          {
            OFFSET 0 0 0
          }
        }
      }
    }
  }
  JOINT Spine
  {
    OFFSET 0.165834 0.87714 6.61349
    CHANNELS 3 Zrotation Xrotation Yrotation
    JOINT Spine1
    {
      OFFSET 7.38963 1.71661e-005 0
      CHANNELS 3 Zrotation Xrotation Yrotation
      JOINT Spine2
      {
        OFFSET 11.9445 1.14441e-005 0
        CHANNELS 3 Zrotation Xrotation Yrotation
        JOINT Spine3
        {
          OFFSET 14.7254 4.19617e-005 0
          CHANNELS 3 Zrotation Xrotation Yrotation
          JOINT Spine4
          {
            OFFSET 10.9679 0 0
            CHANNELS 3 Zrotation Xrotation Yrotation
            JOINT RightShoulder
            {
              OFFSET 2.46616 -1.6653 3.69651
              CHANNELS 3 Zrotation Xrotation Yrotation
              JOINT RightArm
              {
                OFFSET 13.0012 0 0
                CHANNELS 3 Zrotation Xrotation Yrotation
                JOINT RightForeArm
                {
                  OFFSET 28.7848 1.52588e-005 0
                  CHANNELS 3 Zrotation Xrotation Yrotation
                  JOINT RightHand
                  {
                    OFFSET 26.5688 1.52588e-005 0
                    CHANNELS 3 Zrotation Xrotation Yrotation
                    End Site
                    {
                      OFFSET 0 0 0
                    }
                  }
                }
              }
            }
            JOINT LeftShoulder
            {
              OFFSET 2.38034 -1.29275 -3.7523
              CHANNELS 3 Zrotation Xrotation Yrotation
              JOINT LeftArm
              {
                OFFSET 16.3182 6.10352e-005 0
                CHANNELS 3 Zrotation Xrotation Yrotation
                JOINT LeftForeArm
                {
                  OFFSET 27.0901 0 0
                  CHANNELS 3 Zrotation Xrotation Yrotation
                  JOINT LeftHand
                  {
                    OFFSET 24.5451 1.52588e-005 0
                    CHANNELS 3 Zrotation Xrotation Yrotation
                    End Site
                    {
                      OFFSET 0 0 0
                    }
                  }
                }
              }
            }
            JOINT Neck
            {
              OFFSET 5.0226 -0.0266342 0
              CHANNELS 3 Zrotation Xrotation Yrotation
              JOINT Head
              {
                OFFSET 6.69363 2.86102e-005 0
                CHANNELS 3 Zrotation Xrotation Yrotation
                End Site
                {
                  OFFSET 0 0 0
                }
              }
            }
          }
        }
      }
    }
  }
}
MOTION
Frames:	15
Frame Time:	0.0416667
-131.205 14.957 47.3545 -8.21669 -10.1611 -94.1774 -177.657 7.48803 99.5327 -28.4948 5.82693 7.56285 59.5269 2.38589 -24.0567 89.0332 -1.62746 8.54585 169.423 8.15728 68.5827 -34.6585 1.56918 -4.51751 68.8015 2.93051 39.2779 93.4908 4.34856 29.5555 -0.242326 7.31408 -89.7479 12.2464 -0.362115 0.543793 0.575414 -0.337816 0.559218 -21.9596 -0.508795 0.409843 -1.94693 -0.508793 0.409848 103.724 -2.10208 -76.2214 48.671 61.2062 -66.8047 -18.8735 -7.52218 -113.793 -7.99552 -0.0939785 -3.93361 -77.3954 -10.7216 98.0045 -53.1383 -39.2325 -83.229 34.6383 -3.00358 -106.233 -8.20793 0.334099 -12.6864 9.7881 -2.581 30.8998 10.4853 -12.6857 -25.0897 
-131.183 14.9696 47.3857 -8.38088 -10.1473 -94.1653 -177.662 7.27217 99.5404 -28.4543 5.61137 7.5931 59.74 2.39731 -24.3439 84.364 -2.06014 7.29641 169.329 7.98728 68.5485 -34.7485 0.726103 -4.49051 69.2982 2.65194 38.6251 93.6159 3.68319 28.2293 -0.223595 7.31227 -89.7681 12.2499 -0.334444 0.500392 0.578869 -0.312097 0.514639 -21.9561 -0.469393 0.37676 -1.9435 -0.469371 0.376759 103.663 -2.11416 -76.4538 47.283 61.6101 -65.7275 -19.8251 -7.14457 -113.79 -8.37463 -0.0939658 -4.0447 -78.6363 -8.71129 94.4681 -55.3198 -43.1519 -81.8031 33.5142 -2.46166 -106.528 -8.24513 0.332608 -12.5747 8.96323 -2.54996 32.1615 10.9714 -13.0135 -26.2287 
-131.225 15.0268 47.4758 -8.64692 -9.99819 -94.4207 -177.852 6.92186 99.2426 -28.317 5.60423 7.59273 59.5551 2.45738 -24.2055 85.7722 -2.10994 7.25546 169.088 8.07084 68.2099 -35.2 -0.105166 -4.41112 69.8484 2.32982 37.2245 93.0706 3.2842 27.5529 -0.177468 7.30795 -89.7731 12.2583 -0.245216 0.4804 0.587257 -0.22381 0.490742 -21.9476 -0.378264 0.384502 -1.93493 -0.378245 0.384496 103.665 -1.55973 -76.3482 45.6127 61.4644 -63.9954 -20.2554 -6.8344 -113.717 -8.66004 -0.100567 -4.06718 -78.2672 -8.9333 95.5306 -57.2836 -40.9618 -82.7219 35.2587 -2.39747 -106.038 -9.14731 0.468116 -13.8375 10.335 -2.19933 31.3336 7.09858 -11.7007 -24.2195 
-131.251 15.0717 47.611 -8.95501 -9.8909 -94.779 -178.195 6.53117 98.9231 -28.2149 4.15959 7.70334 59.7911 2.38052 -26.09 84.0332 -2.2354 6.81299 168.786 8.025 67.7294 -35.3741 -0.0200292 -4.36269 70.579 2.09154 36.7679 93.9618 2.99723 26.8168 -0.157825 7.28282 -89.7879 12.3085 -0.212964 0.447484 0.637444 -0.193062 0.456426 -21.8974 -0.337611 0.362794 -1.88475 -0.337602 0.362798 103.442 -0.896788 -77.0967 42.825 61.7956 -61.276 -19.9039 -6.83223 -113.57 -9.48488 -0.117639 -3.92768 -78.1954 -8.7112 95.7237 -61.4542 -40.0666 -83.5558 38.4377 -3.10979 -107.821 -10.9399 0.706375 -14.95 7.52156 -2.69392 32.7249 9.02534 -12.2481 -25.1219 
-131.255 15.1467 47.8839 -9.27727 -9.56074 -95.3363 -178.507 5.97334 98.1104 -28.3355 5.47589 7.72255 59.653 2.4421 -23.8021 84.7632 -2.29699 6.70859 168.199 8.3258 66.6968 -35.6137 0.543153 -4.18475 70.3831 2.25492 37.6392 93.1645 2.61326 26.218 -0.118803 7.22952 -89.8204 12.415 -0.150701 0.375801 0.743975 -0.134007 0.382055 -21.7909 -0.256674 0.313128 -1.77827 -0.256685 0.313114 103.14 0.663583 -78.0637 39.8438 61.9183 -57.5003 -19.3398 -6.95621 -113.238 -9.76963 -0.130472 -3.80338 -78.1578 -7.86071 95.8132 -68.3188 -39.9918 -81.8585 37.8549 -5.10025 -115.393 -12.2746 0.844462 -15.1314 2.76669 -4.04075 34.4896 12.0686 -13.4704 -26.8894 
-131.262 15.1778 48.0835 -10.0042 -9.44742 -96.1298 -178.93 5.01294 97.286 -28.1427 5.11521 7.75189 59.6463 2.44185 -24.1129 84.4191 -2.34577 6.5568 167.406 8.36529 65.4431 -36.0816 1.39644 -3.99015 69.9315 2.50343 38.3379 91.0329 3.44491 28.3397 0.0817804 7.26888 -89.7648 12.3353 0.274253 0.438387 0.664329 0.293297 0.42589 -21.8703 0.129819 0.500514 -1.85768 0.129806 0.500545 103.338 1.20855 -77.0941 35.0645 63.1687 -52.4927 -17.1708 -7.68177 -113.406 -9.44125 -0.135074 -3.69529 -78.2357 -5.72707 95.5769 -67.6978 -38.2199 -72.4427 30.3578 -6.03742 -123.982 -9.79765 0.445305 -12.7482 -0.710244 -6.13829 34.0356 14.993 -15.0836 -26.5776 
-131.065 15.2174 48.163 -11.0054 -9.61488 -96.8563 -179.426 4.16279 96.6685 -28.4166 4.46988 7.98472 60.1311 2.41891 -25.1198 83.937 -2.16395 6.98897 165.804 8.2534 64.1997 -36.54 3.81496 -2.9409 70.5057 2.57253 39.214 92.8257 4.52395 30.0703 0.109262 7.2553 -89.7911 12.3627 0.316349 0.381229 0.691749 0.332847 0.366946 -21.8431 0.187158 0.458704 -1.83045 0.187153 0.458681 102.739 3.13906 -79.5079 30.5836 64.6793 -45.7807 -13.9454 -9.02582 -113.539 -10.0468 -0.121193 -3.95642 -78.5751 -9.08397 94.578 -58.0587 -33.9745 -61.7197 30.3941 -9.91181 -126.26 -4.71259 0.0857022 -12.5179 -8.3748 -9.03355 41.6377 19.6975 -19.0873 -34.3668 
-130.834 15.2444 48.246 -12.0846 -9.73906 -97.3363 -179.677 3.30404 96.3379 -28.6907 4.20843 8.19796 59.5919 2.09629 -25.4038 84.4597 -2.71433 5.61574 164.174 8.06406 63.2547 -37.2919 6.2845 -1.74309 70.8442 2.71775 40.1377 93.5488 5.21236 31.2241 0.0171724 7.33277 -89.7994 12.208 0.129139 0.385913 0.537049 0.146003 0.379848 -21.9976 0.00718246 0.406887 -1.985 0.00718439 0.406869 102.722 3.13089 -79.555 30.829 64.4336 -46.2158 -12.5815 -9.50368 -113.404 -10.8456 -0.105025 -4.22018 -79.3413 -12.0741 92.7779 -49.6465 -30.2817 -57.9024 28.3323 -8.86402 -122.818 0.660628 -0.261285 -10.8846 -9.41852 -9.27971 43.3031 20.679 -19.6346 -35.5017 
-130.859 15.2973 48.474 -12.7408 -9.54252 -97.6772 -179.765 2.39385 95.9274 -28.3488 4.70587 8.13096 60.2425 2.41429 -24.5728 84.2279 -2.54216 6.0329 163.563 7.90172 62.7108 -37.507 6.21693 -1.39477 70.9101 2.71698 39.997 94.8592 4.76579 30.0044 -0.062085 7.33619 -89.7967 12.2014 -0.0270478 0.408854 0.530363 -0.00902296 0.409628 -22.0043 -0.148682 0.381816 -1.99169 -0.148664 0.381827 102.421 2.30781 -80.946 25.4864 63.3544 -41.8133 -12.9217 -8.87523 -113 -11.6557 -0.142515 -3.89955 -79.6839 -12.7749 91.8753 -45.3264 -31.6765 -56.98 22.1155 -5.3635 -122.043 0.0829077 -0.229712 -10.8576 -12.3116 -10.2268 45.6438 22.8569 -20.9441 -38.0502 
-130.925 15.3028 48.7229 -13.3468 -9.54027 -98.0931 179.963 1.63913 95.445 -27.9919 3.93288 8.07135 59.8681 2.34563 -25.346 84.4273 -2.65701 5.75608 163.253 7.6518 62.0059 -37.7678 5.67393 -1.48908 71.1573 2.63479 39.5644 95.7218 4.18223 28.7051 -0.105323 7.38275 -89.7584 12.1082 -0.0951147 0.492519 0.437212 -0.0733464 0.496187 -22.0973 -0.238737 0.44117 -2.08468 -0.238754 0.441154 102.336 1.49681 -81.338 26.3598 63.7149 -43.5368 -14.8062 -8.27155 -112.643 -11.1748 -0.138207 -3.8906 -79.7373 -11.2984 91.5587 -47.8614 -34.5447 -59.3965 23.1168 -5.33718 -122.629 -2.63742 -0.0689088 -12.1251 -12.1434 -10.5701 45.8378 21.5486 -20.9874 -38.4989 
-130.95 15.3246 48.7822 -13.9648 -9.90241 -98.3732 179.714 1.10285 95.1691 -28.0572 2.99469 8.12818 60.2372 2.46081 -26.1542 83.8092 -2.20113 6.88503 162.781 7.25002 61.4621 -38.0144 5.94602 -1.38955 71.3216 2.74658 39.8602 92.7608 4.37099 29.7807 -0.10301 7.38012 -89.7345 12.1136 -0.0790604 0.538632 0.442507 -0.0553127 0.541574 -22.0919 -0.237307 0.489948 -2.07925 -0.237302 0.489962 102.305 1.19081 -81.4753 23.8413 63.4934 -41.1272 -14.8189 -8.10707 -112.623 -11.6686 -0.143836 -3.88821 -79.7195 -9.45331 91.3973 -53.2021 -37.1073 -64.2324 23.4521 -3.67766 -120.786 -6.53192 0.183621 -12.1814 -15.6548 -12.9282 47.963 23.3635 -23.3395 -41.5058 
-130.867 15.315 48.7492 -14.4102 -10.3804 -98.7599 179.494 1.08262 94.8996 -28.8584 0.585895 8.16683 58.6999 1.92602 -27.3535 81.4778 -1.70527 8.24144 162.083 7.11159 60.9135 -38.24 6.37516 -0.944349 71.3474 2.81269 40.1218 95.2666 3.56738 27.6538 -0.0873271 7.34007 -89.7058 12.1925 -0.0343193 0.589471 0.52148 -0.00834784 0.590414 -22.0127 -0.209883 0.551917 -2.00009 -0.20991 0.551914 101.975 1.5807 -83.0949 21.4152 63.7871 -36.4006 -15.5444 -7.82672 -113.664 -11.7424 -0.154199 -3.78178 -79.3567 -8.04986 92.3206 -50.3147 -31.9232 -65.772 21.8665 -2.04727 -114.229 -5.41374 0.126799 -12.6759 -20.7104 -16.3067 52.07 26.0841 -26.9304 -46.4642 
-130.536 15.4557 48.7503 -14.8802 -10.6292 -98.7771 179.38 1.22385 95.5203 -28.4607 -1.36293 7.93281 44.0357 -1.74338 -26.9471 70.6189 -3.67168 -0.25332 162.016 7.49667 60.652 -39.7547 7.10183 -0.756121 71.6977 3.16009 41.1857 95.1276 4.53395 29.4975 0.203357 7.59417 -89.4283 11.6812 0.672752 1.06922 0.00998787 0.719167 1.0386 -22.5221 0.320343 1.22193 -2.50942 0.320329 1.22196 103.902 -5.65429 -76.2036 28.7798 65.5257 -49.207 -18.0926 -6.88716 -115.352 -7.83817 -0.0901235 -4.09749 -78.3764 -8.70625 95.2013 -45.2422 -27.4348 -74.8069 26.9013 -3.83516 -111.225 -8.5388 0.301014 -11.6293 -13.4726 -13.4405 45.5342 21.0895 -24.1635 -42.771 
-130.094 15.7367 48.6154 -16.0249 -10.6356 -98.3728 -179.977 0.868485 96.8064 -26.0677 -1.7127 7.91347 37.4163 -3.96244 -23.7275 65.0793 -3.78713 -2.77727 161.903 7.0547 60.7438 -40.8055 7.81514 -0.974406 71.9935 3.48653 43.5696 94.5124 4.76638 30.0803 -0.010358 7.67071 -89.6772 11.5313 0.130404 0.629623 -0.139762 0.157978 0.623246 -22.6737 -0.0648394 0.639715 -2.66105 -0.0648561 0.639696 102.786 -4.87516 -79.9333 26.2817 65.7975 -50.0457 -20.4192 -5.85731 -113.226 -4.01089 -0.0219944 -5.16845 -79.0163 -25.0329 94.1107 -24.9101 -33.6021 -76.5568 20.733 -3.44619 -109.63 -5.84034 0.0600264 -9.4621 -20.1459 -19.3563 59.1038 25.2304 -32.1671 -55.3239 
-129.727 15.9124 48.8132 -17.254 -9.69829 -98.0165 -179.088 -1.99798 97.6826 -22.8987 2.70138 8.05916 39.4682 -3.76964 -22.3631 68.8371 -5.08494 -6.5606 162.022 6.13483 60.4221 -40.3875 7.10273 -1.80942 72.4328 3.55041 45.2601 93.5337 4.44403 29.7198 -0.109653 7.70745 -89.7792 11.4587 -0.114995 0.451224 -0.212299 -0.0950034 0.455859 -22.747 -0.245277 0.395829 -2.73432 -0.245299 0.395814 102.365 -4.88192 -81.4222 25.273 65.4127 -49.0155 -16.6068 -7.37849 -110.371 -5.65936 -0.0158237 -5.5045 -80.311 -23.0926 91.3421 -23.2033 -37.8313 -71.544 18.646 -3.27844 -112.82 -5.64779 0.0235263 -8.30768 -24.1393 -20.8067 57.2117 31.302 -33.9304 -52.7506 
